<?xml version="1.0" standalone="no"?>
<!DOCTYPE svg PUBLIC "-//W3C//DTD SVG 20010904//EN"
 "http://www.w3.org/TR/2001/REC-SVG-20010904/DTD/svg10.dtd">
<svg version="1.0" xmlns="http://www.w3.org/2000/svg"
 width="24" height="24" viewBox="0 0 300.000000 300.000000"
 preserveAspectRatio="xMidYMid meet">
<metadata>
Created by potrace 1.10, written by Peter Selinger 2001-2011
</metadata>
<g transform="translate(0.000000,300.000000) scale(0.100000,-0.100000)"
fill="#000000" stroke="none">
<path d="M1093 2516 c-234 -74 -486 -328 -582 -586 -84 -229 -94 -500 -26
-704 45 -136 57 -166 66 -166 5 0 9 -5 9 -10 0 -10 77 -139 90 -150 3 -3 18
-23 34 -44 17 -22 32 -34 34 -28 2 7 8 12 14 12 5 0 7 -8 4 -18 -5 -14 8 -32
47 -68 80 -72 105 -92 112 -86 3 3 5 0 5 -6 0 -6 12 -17 28 -25 15 -8 61 -32
102 -54 444 -233 1020 -92 1315 322 93 130 164 293 183 421 22 144 22 147 7
134 -8 -7 -15 -18 -15 -25 0 -7 -28 -55 -61 -106 -71 -108 -247 -290 -350
-361 -241 -165 -505 -240 -719 -204 -120 21 -147 29 -245 78 -121 60 -235 163
-307 278 -158 250 -155 581 8 836 63 99 191 216 294 269 54 28 50 29 280 -105
180 -105 190 -111 245 -142 28 -16 68 -40 90 -54 22 -13 50 -29 62 -34 33 -14
63 -47 63 -70 0 -18 -46 -70 -63 -70 -4 0 -26 -12 -50 -27 -23 -14 -58 -36
-77 -48 -126 -79 -262 -155 -279 -155 -43 0 -52 36 -50 205 1 176 7 159 -82
208 -24 13 -76 43 -116 65 -40 23 -75 42 -78 42 -3 0 -5 -152 -5 -337 0 -307
2 -342 19 -379 45 -100 128 -154 235 -154 81 0 95 7 411 200 85 52 178 109
205 125 27 17 86 52 130 78 79 48 130 99 150 151 18 49 12 165 -11 213 -21 44
-76 98 -126 124 -15 8 -57 32 -93 53 -36 22 -135 80 -220 129 -85 50 -179 104
-208 121 -29 17 -65 38 -80 46 -15 8 -55 33 -90 54 -35 21 -84 45 -109 52 -57
17 -144 17 -200 0z"/>
</g>
</svg>
